HIERARCHY
ROOT Hips
{
	OFFSET 0.000000 100.481300 0.000000
	CHANNELS 6 Xposition Yposition Zposition Xrotation Yrotation Zrotation
	JOINT Spine
	{
		OFFSET -0.279200 12.230698 -2.892100
		CHANNELS 3 Xrotation Yrotation Zrotation
		JOINT Spine1
		{
			OFFSET -0.325700 14.269203 -3.374200
			CHANNELS 3 Xrotation Yrotation Zrotation
			JOINT Spine2
			{
				OFFSET -0.372300 16.307602 -0.352600
				CHANNELS 3 Xrotation Yrotation Zrotation
				JOINT Neck
				{
					OFFSET -0.418800 17.814194 8.416900
					CHANNELS 3 Xrotation Yrotation Zrotation
					JOINT Head
					{
						OFFSET 0.000000 7.031097 3.806800
						CHANNELS 3 Xrotation Yrotation Zrotation
						JOINT HeadTop_End
						{
							OFFSET 0.000000 24.646606 12.978600
							CHANNELS 3 Xrotation Yrotation Zrotation
							End Site
							{
								OFFSET 0.000000 27.854965 0.000000
							}
						}
					}
				}
				JOINT LeftShoulder
				{
					OFFSET 16.952999 14.495407 -7.737500
					CHANNELS 3 Xrotation Yrotation Zrotation
					JOINT LeftArm
					{
						OFFSET 9.308998 -2.777710 0.208600
						CHANNELS 3 Xrotation Yrotation Zrotation
						JOINT LeftForeArm
						{
							OFFSET 29.972298 0.000000 0.000000
							CHANNELS 3 Xrotation Yrotation Zrotation
							JOINT LeftHand
							{
								OFFSET 26.026505 0.000000 0.000000
								CHANNELS 3 Xrotation Yrotation Zrotation
								JOINT LeftHandThumb1
								{
									OFFSET 12.240501 -7.147949 9.207150
									CHANNELS 3 Xrotation Yrotation Zrotation
									JOINT LeftHandThumb2
									{
										OFFSET 4.138618 -2.389435 2.389433
										CHANNELS 3 Xrotation Yrotation Zrotation
										JOINT LeftHandThumb3
										{
											OFFSET 2.726913 -1.574387 1.574386
											CHANNELS 3 Xrotation Yrotation Zrotation
											JOINT LeftHandThumb4
											{
												OFFSET 3.941010 -2.275345 2.275342
												CHANNELS 3 Xrotation Yrotation Zrotation
												End Site
												{
													OFFSET -0.005798 5.087799 0.009903
												}
											}
										}
									}
								}
								JOINT LeftHandIndex1
								{
									OFFSET 24.424698 -1.985611 5.953459
									CHANNELS 3 Xrotation Yrotation Zrotation
									JOINT LeftHandIndex2
									{
										OFFSET 6.426697 0.000000 0.000000
										CHANNELS 3 Xrotation Yrotation Zrotation
										JOINT LeftHandIndex3
										{
											OFFSET 5.337898 0.000000 0.000000
											CHANNELS 3 Xrotation Yrotation Zrotation
											JOINT LeftHandIndex4
											{
												OFFSET 4.409401 0.000000 0.000000
												CHANNELS 3 Xrotation Yrotation Zrotation
												End Site
												{
													OFFSET 0.000000 4.409363 0.014373
												}
											}
										}
									}
								}
								JOINT LeftHandMiddle1
								{
									OFFSET 23.810104 0.000000 0.000000
									CHANNELS 3 Xrotation Yrotation Zrotation
									JOINT LeftHandMiddle2
									{
										OFFSET 7.176498 0.000000 0.000000
										CHANNELS 3 Xrotation Yrotation Zrotation
										JOINT LeftHandMiddle3
										{
											OFFSET 6.774902 0.000000 0.000000
											CHANNELS 3 Xrotation Yrotation Zrotation
											JOINT LeftHandMiddle4
											{
												OFFSET 5.403328 0.000000 0.000000
												CHANNELS 3 Xrotation Yrotation Zrotation
												End Site
												{
													OFFSET -0.027702 5.403244 0.017414
												}
											}
										}
									}
								}
								JOINT LeftHandRing1
								{
									OFFSET 22.908401 -0.839279 -6.020567
									CHANNELS 3 Xrotation Yrotation Zrotation
									JOINT LeftHandRing2
									{
										OFFSET 6.337502 0.000000 0.000000
										CHANNELS 3 Xrotation Yrotation Zrotation
										JOINT LeftHandRing3
										{
											OFFSET 5.779297 0.000000 0.000000
											CHANNELS 3 Xrotation Yrotation Zrotation
											JOINT LeftHandRing4
											{
												OFFSET 4.965698 0.000000 0.000000
												CHANNELS 3 Xrotation Yrotation Zrotation
												End Site
												{
													OFFSET 0.000000 4.965668 0.016186
												}
											}
										}
									}
								}
								JOINT LeftHandPinky1
								{
									OFFSET 20.037003 -1.530319 -10.950146
									CHANNELS 3 Xrotation Yrotation Zrotation
									JOINT LeftHandPinky2
									{
										OFFSET 5.254700 0.000000 0.000000
										CHANNELS 3 Xrotation Yrotation Zrotation
										JOINT LeftHandPinky3
										{
											OFFSET 4.810204 0.000000 0.000000
											CHANNELS 3 Xrotation Yrotation Zrotation
											JOINT LeftHandPinky4
											{
												OFFSET 3.647202 0.000000 0.000000
												CHANNELS 3 Xrotation Yrotation Zrotation
												End Site
												{
													OFFSET 0.000000 3.647186 0.011889
												}
											}
										}
									}
								}
							}
						}
					}
				}
				JOINT RightShoulder
				{
					OFFSET -15.141001 14.495407 -7.737500
					CHANNELS 3 Xrotation Yrotation Zrotation
					JOINT RightArm
					{
						OFFSET -9.308998 -2.777710 0.208500
						CHANNELS 3 Xrotation Yrotation Zrotation
						JOINT RightForeArm
						{
							OFFSET -29.972300 0.000000 0.000000
							CHANNELS 3 Xrotation Yrotation Zrotation
							JOINT RightHand
							{
								OFFSET -26.026505 0.000000 0.000000
								CHANNELS 3 Xrotation Yrotation Zrotation
								JOINT RightHandThumb1
								{
									OFFSET -12.240601 -7.148026 9.207092
									CHANNELS 3 Xrotation Yrotation Zrotation
									JOINT RightHandThumb2
									{
										OFFSET -4.138618 -2.389435 2.389433
										CHANNELS 3 Xrotation Yrotation Zrotation
										JOINT RightHandThumb3
										{
											OFFSET -2.726974 -1.574417 1.574421
											CHANNELS 3 Xrotation Yrotation Zrotation
											JOINT RightHandThumb4
											{
												OFFSET -3.941010 -2.275345 2.275343
												CHANNELS 3 Xrotation Yrotation Zrotation
												End Site
												{
													OFFSET 0.005814 5.087799 0.009927
												}
											}
										}
									}
								}
								JOINT RightHandIndex1
								{
									OFFSET -24.424698 -1.985657 5.953444
									CHANNELS 3 Xrotation Yrotation Zrotation
									JOINT RightHandIndex2
									{
										OFFSET -6.426697 0.000000 0.000000
										CHANNELS 3 Xrotation Yrotation Zrotation
										JOINT RightHandIndex3
										{
											OFFSET -5.337898 0.000000 0.000000
											CHANNELS 3 Xrotation Yrotation Zrotation
											JOINT RightHandIndex4
											{
												OFFSET -4.409401 0.000000 0.000000
												CHANNELS 3 Xrotation Yrotation Zrotation
												End Site
												{
													OFFSET 0.000000 4.409363 0.014408
												}
											}
										}
									}
								}
								JOINT RightHandMiddle1
								{
									OFFSET -23.810097 0.000000 0.000000
									CHANNELS 3 Xrotation Yrotation Zrotation
									JOINT RightHandMiddle2
									{
										OFFSET -7.176498 0.000000 0.000000
										CHANNELS 3 Xrotation Yrotation Zrotation
										JOINT RightHandMiddle3
										{
											OFFSET -6.774902 0.000000 0.000000
											CHANNELS 3 Xrotation Yrotation Zrotation
											JOINT RightHandMiddle4
											{
												OFFSET -5.403328 0.000000 0.000000
												CHANNELS 3 Xrotation Yrotation Zrotation
												End Site
												{
													OFFSET 0.027702 5.403244 0.017457
												}
											}
										}
									}
								}
								JOINT RightHandRing1
								{
									OFFSET -22.908302 -0.839325 -6.020576
									CHANNELS 3 Xrotation Yrotation Zrotation
									JOINT RightHandRing2
									{
										OFFSET -6.337502 0.000000 0.000000
										CHANNELS 3 Xrotation Yrotation Zrotation
										JOINT RightHandRing3
										{
											OFFSET -5.779297 0.000000 0.000000
											CHANNELS 3 Xrotation Yrotation Zrotation
											JOINT RightHandRing4
											{
												OFFSET -4.965698 0.000000 0.000000
												CHANNELS 3 Xrotation Yrotation Zrotation
												End Site
												{
													OFFSET 0.000000 4.965668 0.016226
												}
											}
										}
									}
								}
								JOINT RightHandPinky1
								{
									OFFSET -20.037003 -1.530334 -10.950259
									CHANNELS 3 Xrotation Yrotation Zrotation
									JOINT RightHandPinky2
									{
										OFFSET -5.254700 0.000000 0.000000
										CHANNELS 3 Xrotation Yrotation Zrotation
										JOINT RightHandPinky3
										{
											OFFSET -4.810204 0.000000 0.000000
											CHANNELS 3 Xrotation Yrotation Zrotation
											JOINT RightHandPinky4
											{
												OFFSET -3.647202 0.000000 0.000000
												CHANNELS 3 Xrotation Yrotation Zrotation
												End Site
												{
													OFFSET 0.000000 3.647186 0.011917
												}
											}
										}
									}
								}
							}
						}
					}
				}
			}
		}
	}
	JOINT LeftUpLeg
	{
		OFFSET 15.427100 -6.655098 0.678600
		CHANNELS 3 Xrotation Yrotation Zrotation
		JOINT LeftLeg
		{
			OFFSET 4.081073 -39.591068 13.024000
			CHANNELS 3 Xrotation Yrotation Zrotation
			JOINT LeftFoot
			{
				OFFSET -4.081074 -37.707932 -15.979700
				CHANNELS 3 Xrotation Yrotation Zrotation
				JOINT LeftToeBase
				{
					OFFSET 5.346399 -15.068900 20.645000
					CHANNELS 3 Xrotation Yrotation Zrotation
					JOINT LeftToe_End
					{
						OFFSET 2.754700 0.931300 11.300900
						CHANNELS 3 Xrotation Yrotation Zrotation
						End Site
						{
							OFFSET 0.000000 11.669021 0.000000
						}
					}
				}
			}
		}
	}
	JOINT RightUpLeg
	{
		OFFSET -15.569500 -6.655098 0.678600
		CHANNELS 3 Xrotation Yrotation Zrotation
		JOINT RightLeg
		{
			OFFSET -4.081825 -39.591045 13.023800
			CHANNELS 3 Xrotation Yrotation Zrotation
			JOINT RightFoot
			{
				OFFSET 4.081824 -37.707954 -15.979600
				CHANNELS 3 Xrotation Yrotation Zrotation
				JOINT RightToeBase
				{
					OFFSET -5.346400 -15.068900 20.645000
					CHANNELS 3 Xrotation Yrotation Zrotation
					JOINT RightToe_End
					{
						OFFSET -2.754700 0.931300 11.300900
						CHANNELS 3 Xrotation Yrotation Zrotation
						End Site
						{
							OFFSET 0.000000 11.669021 0.000000
						}
					}
				}
			}
		}
	}
}
MOTION
Frames: 4
Frame Time: 0.033333
1.503126 79.588730 -1.854962 -5.067527 -38.756641 -3.523992 0.664232 0.398524 0.200655 16.347013 0.871796 0.513745 17.839990 0.818571 0.595759 -8.829119 15.276698 -3.728507 -16.941487 21.619137 -6.814779 -0.000000 0.000000 -0.000000 3.105171 -17.397332 6.484442 -10.682624 3.018309 -69.240059 -0.000001 -39.781836 -0.000002 -33.717417 -0.138199 3.112359 -6.235868 -3.439751 5.192807 6.345091 15.327880 1.605251 -4.760924 20.656703 18.231254 -0.000001 0.000000 0.000001 -4.961681 -9.993627 -21.501972 0.242764 1.670592 -16.535362 0.242759 1.670583 -16.535364 -0.000003 0.000002 0.000001 -1.049321 -1.883615 -13.082732 3.288132 5.261640 -63.982624 2.410441 4.735411 -53.935036 0.000001 -0.000004 0.000004 0.568071 4.736625 -23.909735 5.396186 5.833420 -85.533352 5.396166 5.833393 -85.533366 0.000001 -0.000001 -0.000000 0.842801 5.276627 -29.844115 5.396185 5.833428 -85.533352 5.396175 5.833426 -85.533366 0.000002 0.000002 -0.000002 4.352143 18.106469 -13.374024 -9.762533 -3.795755 72.476066 0.000009 34.287208 -0.000017 -24.172125 12.266386 0.983031 -6.482418 1.572551 -5.342689 7.152526 -21.104253 -2.644583 -4.685820 -11.996505 -16.084670 -0.000000 -0.000001 -0.000003 0.348913 -3.928833 20.678208 1.652250 -3.559689 49.786451 0.720571 -2.490424 32.269854 0.000002 0.000001 -0.000000 0.484828 -4.250875 24.978137 2.800410 -4.271778 66.480881 1.936724 -3.781426 54.227689 -0.000001 -0.000001 -0.000001 0.658567 -4.586453 29.628729 3.153567 -4.408281 71.144835 2.252579 -3.989551 58.886292 -0.000002 -0.000000 0.000002 0.770951 -4.773091 32.310142 3.361772 -4.473776 73.833177 2.441991 -4.097615 61.571908 0.000001 -0.000002 0.000001 -32.234070 7.470648 24.029881 44.172787 -4.851057 4.453817 -7.466867 2.798106 -18.448157 -1.323960 -0.000005 -0.000001 -0.000000 0.000000 0.000000 -9.351793 -14.265028 -29.021371 38.743333 5.789046 -0.949605 -21.898770 -7.550224 25.281298 -1.496040 0.000016 -0.013511 0.000000 -0.000002 -0.000000 
1.428753 79.593102 -1.817201 -5.049159 -38.778785 -3.499776 0.596928 0.391873 0.205679 16.104433 0.863276 0.521569 17.807034 0.814585 0.597414 -8.721095 15.150652 -3.678078 -16.461364 21.565882 -6.957042 -0.000000 -0.000000 -0.000000 3.119200 -17.394106 6.450902 -10.528982 2.776521 -69.390719 -0.000001 -39.218215 0.000002 -33.652964 -0.067570 2.547128 -6.122714 -3.389069 5.208620 6.352876 15.384839 1.610586 -4.756934 20.705783 18.242535 -0.000000 0.000001 0.000001 -4.991983 -9.966849 -21.643211 0.240956 1.664449 -16.472770 0.242764 1.670593 -16.535355 -0.000002 -0.000001 -0.000002 -1.077919 -1.836139 -13.470582 3.234292 5.235113 -63.393950 2.410442 4.735398 -53.935036 -0.000000 -0.000005 -0.000000 0.573722 4.749317 -24.045763 5.299997 5.825154 -84.586422 5.396161 5.833412 -85.533346 -0.000002 0.000001 -0.000001 0.843087 5.277130 -29.849805 5.288103 5.824019 -84.469148 5.396177 5.833416 -85.533352 -0.000001 0.000000 -0.000001 4.353119 18.100792 -13.242181 -9.652911 -3.880543 72.603647 -0.000005 34.101406 0.000013 -23.543920 11.799900 0.465954 -6.507624 2.052361 -5.248541 7.096003 -20.620981 -2.608487 -4.740760 -11.523237 -15.987345 -0.000003 0.000000 0.000001 0.350877 -3.934022 20.746561 1.647843 -3.555951 49.715328 0.720575 -2.490434 32.269861 -0.000001 0.000001 -0.000000 0.487613 -4.256851 25.059390 2.794619 -4.269250 66.402969 1.936720 -3.781424 54.227693 -0.000000 0.000001 -0.000000 0.662335 -4.593040 29.722162 3.147977 -4.406369 71.072087 2.252578 -3.989541 58.886292 -0.000002 -0.000000 -0.000001 0.775281 -4.779912 32.409627 3.356548 -4.472264 73.766186 2.441983 -4.097619 61.571915 -0.000001 -0.000003 -0.000004 -32.157890 7.479715 24.054058 44.149018 -4.842339 4.454441 -7.521731 2.813385 -18.504019 -1.323959 -0.000005 -0.000001 -0.000000 -0.000000 -0.000000 -9.309165 -14.289723 -29.005734 38.730239 5.806060 -0.957793 -21.960330 -7.557884 25.263015 -1.496161 -0.000011 -0.013586 0.000000 -0.000003 -0.000000 
1.353977 79.600510 -1.780781 -5.036477 -38.797141 -3.476816 0.527115 0.383583 0.209691 15.857536 0.850152 0.524716 17.769731 0.805949 0.594671 -8.602349 15.036091 -3.631492 -15.943931 21.562624 -7.102992 0.000000 0.000000 0.000000 3.133846 -17.387459 6.426338 -10.525915 2.361331 -69.606499 -0.000005 -38.161530 -0.000011 -33.620332 -0.213495 1.864805 -5.733841 -3.372650 5.236894 6.374094 15.540518 1.625038 -4.749329 20.799564 18.264097 -0.000001 0.000000 -0.000001 -5.168565 -9.807977 -22.472803 0.254855 1.710725 -16.944646 0.245164 1.678625 -16.617381 -0.000000 0.000001 0.000004 -1.165928 -1.685238 -14.692606 3.171626 5.203391 -62.705160 2.346680 4.688457 -53.158737 -0.000001 0.000002 -0.000001 0.615008 4.839459 -25.016029 5.093514 5.801991 -82.547966 5.129588 5.806553 -82.904877 0.000005 -0.000000 -0.000001 0.886507 5.351214 -30.690769 4.997358 5.788664 -81.595742 5.212269 5.816203 -83.721426 -0.000002 -0.000000 0.000000 4.350117 18.136133 -13.088890 -9.668183 -3.884002 72.720689 0.000006 33.650689 0.000002 -23.270632 11.195496 0.329528 -6.536316 2.580944 -5.144461 7.033560 -20.088507 -2.568298 -4.802139 -11.001796 -15.879739 -0.000002 0.000001 0.000002 0.362458 -3.964176 21.143679 1.684808 -3.586909 50.308827 0.724850 -2.497189 32.368352 0.000000 -0.000001 0.000000 0.503975 -4.291362 25.529149 2.850535 -4.293185 67.151900 1.946906 -3.788714 54.381860 0.000001 -0.000001 -0.000000 0.684272 -4.630921 30.260825 3.207953 -4.426421 71.850988 2.264167 -3.996509 59.052689 0.000001 -0.000001 -0.000001 0.800511 -4.819066 32.982987 3.417805 -4.489593 74.550272 2.454255 -4.104227 61.743571 0.000001 -0.000003 0.000000 -32.079493 7.499615 24.082176 44.116168 -4.847095 4.445812 -7.570221 2.825790 -18.548147 -1.323959 -0.000004 -0.000001 -0.000000 0.000002 0.000000 -9.262916 -14.323603 -28.992712 38.712522 5.826460 -0.966492 -22.019784 -7.563730 25.242381 -1.496309 -0.000014 -0.013704 -0.000000 0.000000 0.000000 
1.281108 79.600662 -1.747582 -5.033377 -38.819042 -3.451330 0.459274 0.379973 0.214977 15.615604 0.845565 0.524626 17.737308 0.805823 0.588801 -8.495628 14.935342 -3.592666 -15.422524 21.582810 -7.244113 0.000000 0.000000 0.000000 3.153029 -17.348341 6.430614 -10.753624 1.685890 -69.903585 0.000013 -36.515028 0.000009 -33.517979 -0.720406 1.240518 -4.993366 -3.591166 5.249691 6.405767 15.773161 1.646543 -4.744526 20.859014 18.277781 0.000001 -0.000002 -0.000004 -5.388017 -9.603858 -23.518775 0.287346 1.813922 -18.001408 0.268954 1.756345 -17.411086 0.000000 0.000000 -0.000001 -1.272092 -1.492730 -16.230158 3.139701 5.186864 -62.352531 2.326208 4.673101 -52.907929 0.000001 0.000000 -0.000001 0.672079 4.957814 -26.302348 4.860671 5.766913 -80.238173 4.728352 5.742680 -78.918656 0.000005 -0.000002 -0.000002 0.948036 5.452072 -31.848103 4.623657 5.721312 -77.870304 5.025127 5.792663 -81.871067 0.000004 0.000001 -0.000001 4.335440 18.307776 -12.858329 -9.623681 -3.952229 72.799544 -0.000008 33.333461 0.000017 -24.527619 10.884445 0.046139 -6.568070 3.145745 -5.032918 6.966631 -19.519542 -2.524835 -4.868727 -10.444680 -15.764259 0.000001 -0.000000 -0.000000 0.369616 -3.982544 21.386159 1.733566 -3.626736 51.083907 0.750160 -2.536626 32.944540 -0.000001 0.000001 -0.000000 0.518142 -4.320678 25.929662 2.934264 -4.327414 68.265944 2.006144 -3.830390 55.273651 -0.000000 0.000001 -0.000001 0.706866 -4.669116 30.807059 3.305584 -4.457147 73.111533 2.331708 -4.036132 60.016968 -0.000000 -0.000001 -0.000001 0.829488 -4.862994 33.630687 3.523529 -4.517396 75.896652 2.525927 -4.141849 62.740308 0.000001 0.000000 -0.000001 -31.998757 7.523669 24.109238 44.090982 -4.854435 4.430157 -7.620313 2.838922 -18.588061 -1.323959 -0.000005 -0.000001 -0.000000 -0.000002 -0.000000 -9.231914 -14.360311 -28.995598 38.715507 5.861203 -0.980131 -22.085996 -7.567624 25.218279 -1.496633 0.000028 -0.013934 -0.000000 0.000003 0.000000 
